<svg width="40" height="30" viewBox="0 0 40 30" fill="none" xmlns="http://www.w3.org/2000/svg">
<path d="M20.9868 12.5484C20.9868 13.7007 20.2581 14.3636 18.9732 14.3636H17.2857V10.7344H18.9807C20.2581 10.7344 20.9868 11.3901 20.9868 12.5484ZM24.2855 16.7405C24.2855 17.2961 24.7855 17.6577 25.5705 17.6577C26.5704 17.6577 27.3204 17.049 27.3204 16.1908V15.675L25.6879 15.775C24.7642 15.8353 24.2855 16.1631 24.2855 16.7393V16.7405ZM40 3.21454V26.7855C39.9997 27.6379 39.6483 28.4554 39.0232 29.0581C38.3981 29.6609 37.5504 29.9997 36.6664 30H3.33365C2.44961 29.9997 1.60188 29.6609 0.976768 29.0581C0.35166 28.4554 0.000331286 27.6379 0 26.7855V3.21454C0.000331286 2.36209 0.35166 1.54465 0.976768 0.941871C1.60188 0.339096 2.44961 0.00031945 3.33365 0H36.6664C37.5504 0.00031945 38.3981 0.339096 39.0232 0.941871C39.6483 1.54465 39.9997 2.36209 40 3.21454ZM8.87597 11.1286C9.4597 11.1756 10.0422 10.8477 10.4109 10.4319C10.7722 10.0028 11.0084 9.42788 10.9459 8.84452C10.4322 8.86501 9.79344 9.17236 9.42471 9.60145C9.09097 9.97027 8.80723 10.5657 8.87597 11.1286ZM13.0846 16.1173C13.0708 16.1041 11.7234 15.6087 11.7096 14.1081C11.6959 12.8558 12.7721 12.2531 12.8209 12.2194C12.2096 11.3491 11.2646 11.2551 10.9384 11.2346C10.0909 11.1876 9.36846 11.6963 8.96597 11.6963C8.55598 11.6963 7.94475 11.2539 7.27852 11.2684C6.84356 11.2795 6.4192 11.4003 6.04771 11.6188C5.67621 11.8372 5.37053 12.1457 5.16109 12.5135C4.25112 14.0273 4.92485 16.2632 5.80732 17.495C6.23731 18.1037 6.75854 18.7738 7.43977 18.7473C8.08475 18.7208 8.34224 18.3459 9.11972 18.3459C9.90469 18.3459 10.1272 18.7473 10.8072 18.7413C11.5159 18.728 11.9534 18.1326 12.3909 17.5227C12.8696 16.826 13.0708 16.1571 13.0858 16.1161L13.0846 16.1173ZM22.4868 12.5424C22.4868 10.7609 21.2018 9.54239 19.3681 9.54239H15.8133V18.6762H17.2857V15.5556H19.3206C21.1818 15.5556 22.4868 14.3238 22.4868 12.5424ZM28.7366 14.1286C28.7366 12.81 27.6391 11.959 25.9592 11.959C24.3967 11.959 23.2443 12.8232 23.2018 14.0008H24.528C24.6392 13.4379 25.1805 13.0703 25.9167 13.0703C26.8192 13.0703 27.3191 13.4717 27.3191 14.2226V14.7252L25.4855 14.8325C23.7768 14.9325 22.8543 15.6099 22.8543 16.7814C22.8543 17.9663 23.8055 18.7497 25.173 18.7497C26.0967 18.7497 26.9504 18.3013 27.3391 17.5842H27.3666V18.6822H28.7279V14.1286H28.7366ZM35.8339 12.0458H34.3414L32.6127 17.4431H32.5852L30.8565 12.0458H29.3078L31.8003 18.6955L31.669 19.0968C31.4465 19.7802 31.079 20.0478 30.4265 20.0478C30.2826 20.0452 30.1388 20.0384 29.9953 20.0273V21.1254C30.0791 21.1519 30.4465 21.1591 30.5578 21.1591C31.9953 21.1591 32.669 20.63 33.259 19.0293L35.8339 12.0458Z" fill="white"/>
</svg>
