<svg width="30" height="30" viewBox="0 0 30 30" fill="none" xmlns="http://www.w3.org/2000/svg">
<path d="M15 0C6.7212 0 0 6.7212 0 15C0 23.2788 6.7212 30 15 30C23.2638 30 29.9733 23.3028 29.9976 15.0444C29.9991 15.0296 29.9999 15.0148 30 15C30 14.9867 29.9994 14.9734 29.9982 14.9601C29.9766 6.6996 23.2656 0 15 0ZM15 0.9C15.141 0.9 15.2802 0.9063 15.42 0.9105C16.536 1.1844 17.4165 1.419 17.6724 2.505C18.8604 3.2406 20.0352 3.8982 20.8587 4.98C20.2026 5.172 19.2393 4.8528 19.3827 4.0704C18.9531 4.6647 18.7317 4.401 18.1476 4.3923C18.6036 4.4925 18.7854 5.4282 19.3752 4.8897C20.0853 5.6007 18.4053 5.9286 18.051 5.6589C17.1444 5.7429 18.2292 6.6636 17.1411 6.5952C16.2867 7.2534 16.9233 8.3595 15.7161 8.6679C14.2005 9.1188 16.4202 11.1345 14.9058 11.3808C14.8464 10.737 14.4318 9.5928 13.4742 9.6093C12.5613 10.251 10.5612 9.1467 10.3929 10.9413C9.7443 11.8158 10.4796 13.6695 11.6514 13.0125C11.874 12.381 13.743 11.544 13.2684 12.7659C13.0785 13.53 12.5322 14.2365 13.6212 13.9677C15.1533 14.0319 14.0667 15.3282 14.5962 16.0746C15.1902 16.4091 16.0974 16.2819 16.7052 16.2534C16.8606 15.2373 18.4752 15.2985 18.5748 15.2589C18.7434 14.8377 19.5483 15.2691 19.4214 15.729C20.4435 15.7068 20.2068 15.105 21.1635 15.5595C21.9405 14.8398 21.3615 16.3995 22.305 16.5081C22.9347 17.1399 24.3675 16.5519 24.4962 17.8944C24.8418 19.1721 26.7357 18.3855 27.3498 19.2756C27.3144 20.6433 26.1588 21.6171 25.8012 22.8996C25.2312 24.3264 23.5734 24.654 22.8252 25.9194C21.7524 26.8914 20.5512 27.5913 19.2627 28.1766C19.0092 28.3212 18.5808 28.5288 18.2085 28.7292C17.5072 28.8921 16.7944 29.001 16.0764 29.055C16.2156 28.6809 16.8723 28.236 16.9974 27.8508C17.4774 26.8068 18.9309 25.1913 17.6532 24.2859C16.7064 24.1197 16.4199 23.2542 15.9681 22.6119C15.6825 21.7509 14.4291 21.1035 15.1248 20.2911C14.796 19.5027 15.8829 18.7683 16.2318 18.1125C16.3398 17.4117 15.6498 16.2915 15.2712 17.2215C14.4969 16.9824 13.5522 16.4793 13.2756 15.6663C12.453 15.1248 11.3124 14.5407 10.5171 14.1615C9.5253 14.2074 8.6199 13.4886 7.8966 12.8895C7.8264 11.8467 7.2057 10.5585 6.705 9.8865C7.1589 10.587 7.0896 12.4737 6.3591 10.9005C6.1491 10.1865 6.0432 9.2538 6 8.4579C5.4552 8.0907 5.7081 6.4935 6.2415 5.8278C6.837 5.3628 7.3209 3.9849 7.2903 3.753C6.954 3.8742 7.4937 3.2979 7.752 2.9028C9.94096 1.58861 12.4468 0.896175 15 0.9ZM17.0355 1.0482C17.9403 1.17881 18.8301 1.39765 19.6923 1.7016C19.7052 1.7346 19.7184 1.7682 19.7367 1.8066C21.0213 3.2691 18.4158 1.9488 17.874 1.5111C17.6877 1.3518 17.376 1.1865 17.0355 1.0482ZM15.2853 1.4196C14.9559 1.4364 14.6931 1.5996 15.1263 1.8504C14.8524 2.5452 13.1694 1.5864 13.1502 2.625C13.6716 3.1329 14.7804 3.0804 15.2085 3.5925C14.8344 2.9067 15.8043 2.7279 15.5175 3.1581C15.4659 3.462 15.8844 2.691 15.4599 2.8992C15.3258 2.0883 14.8788 2.0397 15.8151 1.5597C15.705 1.452 15.483 1.4097 15.2853 1.4196ZM16.0308 10.5099C16.5099 10.5318 16.9257 11.5299 17.2068 11.5407C17.2359 11.4486 17.5623 12.5187 17.1318 12.0927C16.4562 11.9289 16.584 10.5813 16.2288 11.6748C15.3384 11.6973 16.4571 10.6287 15.6897 10.6752C15.8061 10.5522 15.9201 10.5048 16.0308 10.5102V10.5099ZM14.9121 11.577C15.8628 11.6058 16.7676 12.723 17.4813 12.2208C17.7498 12.4248 17.8194 12.9276 18.6486 12.8028C19.6665 13.1337 19.1088 13.542 18.4866 13.4718C18.2988 13.4439 18.1974 13.8504 18.0294 13.5579C17.6262 13.6041 16.6908 13.3464 17.4702 13.0488C17.4732 12.3753 16.0542 13.5474 16.0476 12.6648C15.4134 12.4395 14.9856 12.0033 14.4579 12.4494C14.1639 12.2178 13.416 12.24 14.2482 11.7645C14.4447 11.6347 14.6767 11.5691 14.9121 11.577ZM20.6442 13.1601C20.7552 13.1169 21.039 13.6971 21.1392 13.2762C21.333 13.7862 21.8505 15.1824 21.1671 15.2577C21.522 14.5077 20.9397 13.8261 20.5998 13.3095C20.6028 13.2135 20.6187 13.17 20.6442 13.1601Z" fill="white"/>
</svg>
