<svg width="45" height="30" viewBox="0 0 45 30" fill="none" xmlns="http://www.w3.org/2000/svg">
<path d="M39.5415 22.4957V16.4957H45V11.9975H39.5415V5.99752H35.451V11.9975H29.9947V16.4957H35.451V22.4957H39.5415ZM13.6395 5.83395C16.193 5.83395 17.9126 7.03346 18.8907 8.05452L22.7716 3.91574C20.4097 1.48699 17.3288 6.85154e-07 13.6395 6.85154e-07C6.11659 -0.00247763 0 6.71871 0 14.9988C0 23.2788 6.11659 30 13.6395 30C21.5117 30 26.7381 23.9108 26.7381 15.3457C26.7381 14.0991 26.5939 13.2144 26.3933 12.2726H13.6327V17.8637H21.1421C20.786 20.2206 18.8636 24.1983 13.6395 24.1983C9.12531 24.1983 5.44273 20.0719 5.44273 15.0186C5.44273 9.95787 9.12531 5.83395 13.6395 5.83395Z" fill="white"/>
</svg>
