<svg width="30" height="30" viewBox="0 0 30 30" fill="none" xmlns="http://www.w3.org/2000/svg">
<path d="M29 9.00108V9.00092C29.0002 7.92386 28.807 6.85968 28.4339 5.8714C28.0607 4.88318 27.5165 3.99406 26.8376 3.25353C26.159 2.51323 25.3603 1.93703 24.4913 1.5527C23.6228 1.16855 22.6982 0.982242 21.7706 1.00133L21.7573 1.0016L21.7441 1.00153C20.6293 0.994948 19.5223 1.25146 18.4953 1.75859C17.4678 2.26598 16.5405 3.01444 15.7794 3.96126L15 4.93075L14.2206 3.96126C13.4595 3.01444 12.5322 2.26598 11.5047 1.75859C10.4777 1.25146 9.37073 0.994948 8.2559 1.00153L8.24266 1.0016L8.22943 1.00133C7.30176 0.982242 6.37723 1.16855 5.50867 1.5527C4.63971 1.93703 3.84101 2.51323 3.16236 3.25353C2.48351 3.99406 1.93926 4.88318 1.56614 5.8714C1.193 6.85968 0.999834 7.92386 1 9.00092V9.00108C1 13.0964 3.196 16.78 6.21177 20.1849C7.71183 21.8785 9.38604 23.4716 11.0403 24.9869C11.512 25.4189 11.9844 25.8467 12.4509 26.2691C13.3364 27.0709 14.2004 27.8533 14.9967 28.6081C15.8318 27.8096 16.7413 26.9833 17.6728 26.1371C18.097 25.7517 18.5258 25.3622 18.9542 24.9693C20.6087 23.4517 22.2835 21.8604 23.7845 20.1697C26.802 16.7709 29 13.0988 29 9.00108Z" fill="#685248" stroke="#685248" stroke-width="2"/>
</svg>
