<svg width="28" height="30" viewBox="0 0 28 30" fill="none" xmlns="http://www.w3.org/2000/svg">
<path d="M14 0.0020012C12.9912 -0.0203169 11.9877 0.144233 11.0486 0.485972C10.1095 0.82771 9.25382 1.33974 8.53179 1.99193C7.80975 2.64412 7.23599 3.42332 6.84425 4.28367C6.45251 5.14402 6.25071 6.06817 6.25071 7.00173C6.25071 7.9353 6.45251 8.85944 6.84425 9.7198C7.23599 10.5802 7.80975 11.3593 8.53179 12.0115C9.25382 12.6637 10.1095 13.1758 11.0486 13.5175C11.9877 13.8592 12.9912 14.0238 14 14.0015C15.0088 14.0238 16.0123 13.8592 16.9514 13.5175C17.8905 13.1758 18.7462 12.6637 19.4682 12.0115C20.1903 11.3593 20.764 10.5802 21.1558 9.7198C21.5475 8.85944 21.7493 7.9353 21.7493 7.00173C21.7493 6.06817 21.5475 5.14402 21.1558 4.28367C20.764 3.42332 20.1903 2.64412 19.4682 1.99193C18.7462 1.33974 17.8905 0.82771 16.9514 0.485972C16.0123 0.144233 15.0088 -0.0203169 14 0.0020012ZM9.67399 17.9996C7.66616 17.9996 4.06897 18.1369 2 20.0509C0.58025 21.3644 7.44686e-06 23.1458 7.44686e-06 25.0033L0 30H28V25.0033C28 23.1458 27.4198 21.3644 26 20.0509C24.9655 18.5 20.3339 17.9996 18.326 17.9996H9.67399Z" fill="#C4C4C4"/>
</svg>
