<svg width="28" height="30" viewBox="0 0 28 30" fill="none" xmlns="http://www.w3.org/2000/svg">
<path d="M13.9779 1.00176L14 1.00225L14.0221 1.00176C14.9082 0.982155 15.7881 1.12679 16.6094 1.42568C17.4307 1.72455 18.1742 2.17061 18.7979 2.73402C19.4215 3.29727 19.9123 3.96586 20.2457 4.69806C20.5789 5.42999 20.7493 6.21298 20.7493 7.00173C20.7493 7.79049 20.5789 8.57348 20.2457 9.30541C19.9123 10.0376 19.4215 10.7062 18.7979 11.2695C18.1742 11.8329 17.4307 12.2789 16.6094 12.5778C15.7881 12.8767 14.9082 13.0213 14.0221 13.0017L14 13.0012L13.9779 13.0017C13.0919 13.0213 12.2119 12.8767 11.3906 12.5778C10.5693 12.2789 9.82583 11.8329 9.20209 11.2695C8.57852 10.7062 8.08774 10.0376 7.75435 9.30541C7.42108 8.57348 7.25071 7.79049 7.25071 7.00173C7.25071 6.21298 7.42108 5.42999 7.75435 4.69806C8.08774 3.96586 8.57852 3.29727 9.20209 2.73402C9.82583 2.17061 10.5693 1.72455 11.3906 1.42568C12.2119 1.12679 13.0919 0.982155 13.9779 1.00176ZM2.67909 20.785C3.51835 20.0086 4.72571 19.5464 6.05054 19.2892C7.363 19.0343 8.68695 18.9996 9.67399 18.9996H18.326C19.2633 18.9996 20.6907 19.118 22.0736 19.4206C23.4972 19.732 24.6888 20.2002 25.3209 20.785C26.4896 21.8662 27 23.351 27 25V29H1L1.00001 25C1.00001 23.351 1.51036 21.8662 2.67909 20.785Z" stroke="white" stroke-width="2"/>
</svg>
