<svg width="27" height="27" viewBox="0 0 27 27" fill="none" xmlns="http://www.w3.org/2000/svg">
<path d="M26.1875 24.8619L19.1075 17.7819C20.8089 15.7394 21.6573 13.1195 21.4762 10.4674C21.2952 7.81529 20.0987 5.33505 18.1355 3.54267C16.1724 1.75029 13.5938 0.783759 10.9362 0.844145C8.2786 0.904531 5.74658 1.98718 3.86688 3.86688C1.98718 5.74658 0.904529 8.2786 0.844143 10.9362C0.783757 13.5938 1.75029 16.1724 3.54267 18.1355C5.33505 20.0987 7.81529 21.2952 10.4674 21.4762C13.1195 21.6573 15.7394 20.8089 17.7819 19.1075L24.8619 26.1875L26.1875 24.8619ZM2.75 11.1875C2.75 9.51872 3.24485 7.88742 4.17198 6.49988C5.0991 5.11234 6.41686 4.03088 7.95861 3.39227C9.50036 2.75365 11.1969 2.58656 12.8336 2.91213C14.4703 3.23769 15.9737 4.04128 17.1537 5.22129C18.3337 6.40129 19.1373 7.90471 19.4629 9.54143C19.7884 11.1781 19.6213 12.8746 18.9827 14.4164C18.3441 15.9581 17.2627 17.2759 15.8751 18.203C14.4876 19.1302 12.8563 19.625 11.1875 19.625C8.9505 19.6225 6.80583 18.7328 5.22403 17.151C3.64223 15.5692 2.75248 13.4245 2.75 11.1875Z" fill="white"/>
</svg>
