<svg width="35" height="30" viewBox="0 0 35 30" fill="none" xmlns="http://www.w3.org/2000/svg">
<path d="M34.9978 3.55359C34.0233 5.08333 32.8277 6.38736 31.411 7.46568C31.425 7.75488 31.432 8.08175 31.432 8.44629C31.432 10.4718 31.1522 12.4997 30.5925 14.53C30.0329 16.5604 29.178 18.5038 28.0279 20.3603C26.8779 22.2168 25.5079 23.8615 23.9181 25.2944C22.3282 26.7272 20.4172 27.8697 18.1849 28.7219C15.9526 29.574 13.5602 30 11.0077 30C7.02401 30 3.35546 28.8651 0.00201416 26.5952C0.597211 26.6651 1.16806 26.7001 1.71455 26.7001C5.04256 26.7001 8.01501 25.6183 10.6319 23.4548C9.08019 23.4248 7.69052 22.9207 6.46289 21.9425C5.23525 20.9644 4.39042 19.7145 3.9284 18.1929C4.38508 18.2847 4.83581 18.3306 5.28058 18.3306C5.92081 18.3306 6.55078 18.2425 7.1705 18.0662C5.51454 17.7162 4.14078 16.8458 3.04922 15.455C1.9577 14.0642 1.41194 12.459 1.41194 10.6393V10.5455C2.42837 11.1395 3.51256 11.4554 4.6645 11.4933C3.68352 10.8031 2.90576 9.90315 2.3312 8.79333C1.7566 7.68351 1.4693 6.48249 1.4693 5.19027C1.4693 3.82741 1.79291 2.55833 2.44013 1.38303C4.24096 3.71517 6.42304 5.57909 8.98637 6.97479C11.5497 8.37051 14.2997 9.14565 17.2364 9.30021C17.1111 8.74935 17.0484 8.1745 17.0482 7.57566C17.0482 5.48474 17.7493 3.6994 19.1516 2.21964C20.554 0.73988 22.2458 0 24.2271 0C26.3015 0 28.0488 0.79711 29.4689 2.39133C31.0915 2.05215 32.6108 1.43866 34.0268 0.55086C33.4813 2.36266 32.4301 3.76034 30.8733 4.7439C32.3041 4.56446 33.679 4.16769 34.9977 3.55359H34.9978Z" fill="white"/>
</svg>
