<svg width="40" height="30" viewBox="0 0 40 30" fill="none" xmlns="http://www.w3.org/2000/svg">
<path d="M32.6458 13.346C32.6458 13.346 33.1736 15.8371 33.2917 16.3594H30.9722C31.2014 15.7634 32.0833 13.4464 32.0833 13.4464C32.0694 13.4665 32.3125 12.8371 32.4514 12.4487L32.6458 13.346ZM40 3.21429V26.7857C40 28.5603 38.5069 30 36.6667 30H3.33333C1.49306 30 0 28.5603 0 26.7857V3.21429C0 1.43973 1.49306 0 3.33333 0H36.6667C38.5069 0 40 1.43973 40 3.21429ZM10.5903 20.0357L14.9792 9.64286H12.0278L9.29861 16.7411L9 15.3013L8.02778 10.5201C7.86806 9.85714 7.375 9.66964 6.76389 9.64286H2.27083L2.22222 9.85045C3.31944 10.1183 4.29861 10.5067 5.15278 10.9955L7.63889 20.0357H10.5903ZM17.1458 20.0491L18.8958 9.64286H16.1042L14.3611 20.0491H17.1458ZM26.8611 16.6473C26.875 15.4621 26.125 14.558 24.5208 13.8147C23.5417 13.3393 22.9444 13.0179 22.9444 12.529C22.9583 12.0871 23.4514 11.6317 24.5486 11.6317C25.4583 11.6116 26.125 11.8192 26.625 12.0268L26.875 12.1406L27.2569 9.89062C26.7083 9.68303 25.8333 9.44866 24.7569 9.44866C22 9.44866 20.0625 10.8683 20.0486 12.8906C20.0278 14.3839 21.4375 15.2143 22.4931 15.7165C23.5694 16.2254 23.9375 16.5603 23.9375 17.0089C23.9236 17.7054 23.0625 18.0268 22.2639 18.0268C21.1528 18.0268 20.5556 17.8594 19.6458 17.471L19.2778 17.3036L18.8889 19.6406C19.5417 19.9286 20.75 20.183 22 20.1964C24.9306 20.2031 26.8403 18.8036 26.8611 16.6473ZM36.6667 20.0491L34.4167 9.64286H32.2569C31.5903 9.64286 31.0833 9.83036 30.7986 10.5067L26.6528 20.0491H29.5833C29.5833 20.0491 30.0625 18.7634 30.1667 18.4888H33.75C33.8333 18.8571 34.0833 20.0491 34.0833 20.0491H36.6667Z" fill="white"/>
</svg>
